<?xml version="1.0" standalone="no"?>
<!DOCTYPE svg PUBLIC "-//W3C//DTD SVG 20010904//EN"
 "http://www.w3.org/TR/2001/REC-SVG-20010904/DTD/svg10.dtd">
<svg version="1.0" xmlns="http://www.w3.org/2000/svg"
 width="96.000000pt" height="96.000000pt" viewBox="0 0 96.000000 96.000000"
 preserveAspectRatio="xMidYMid meet">
<metadata>
Created by potrace 1.14, written by Peter Selinger 2001-2017
</metadata>
<g transform="translate(0.000000,96.000000) scale(0.100000,-0.100000)"
fill="#000000" stroke="none">
<path d="M475 797 c-22 -12 -56 -44 -75 -70 -29 -38 -41 -47 -66 -47 -17 0
-45 -7 -62 -15 -34 -17 -82 -69 -82 -89 0 -7 -16 -20 -35 -29 -19 -9 -35 -21
-35 -26 0 -5 -12 -14 -27 -19 -16 -6 -21 -11 -12 -11 10 -1 15 -12 16 -35 2
-55 31 -96 81 -109 45 -12 51 -24 27 -61 -12 -18 -13 -25 -2 -40 7 -9 19 -18
27 -19 8 -2 35 -17 59 -35 82 -60 155 -61 229 -5 31 23 34 24 57 9 39 -26 98
-20 136 11 20 18 41 26 57 24 80 -10 138 84 98 160 -10 20 -11 37 -3 75 9 45
7 52 -18 91 -15 23 -40 47 -55 53 -20 8 -29 22 -39 60 -7 28 -17 52 -22 56 -5
3 -9 10 -9 15 0 6 4 8 9 4 5 -3 12 -1 15 4 4 5 -2 8 -11 7 -10 -2 -23 2 -29 8
-9 8 -7 13 10 18 18 5 16 6 -9 7 -16 1 -48 8 -70 16 -59 21 -114 18 -160 -8z"/>
</g>
</svg>
