<svg version="1.2" baseProfile="tiny-ps" xmlns="http://www.w3.org/2000/svg" viewBox="0 0 90 94" width="90" height="94">
	<title>&amp;</title>
	<style>
		tspan { white-space:pre }
		.shp0 { fill: #bbedff } 
	</style>
	<path id="&amp;" class="shp0" d="M70.43 73.4C73.63 69.44 76.49 64.89 79.01 59.75C81.54 54.61 83.52 49.34 84.96 43.94L65.87 43.94C63.79 51.3 61.33 57.32 58.49 62L41.45 45.38C47.61 41.82 52.07 38.07 54.83 34.12C57.59 30.18 58.97 25.83 58.97 21.07C58.97 15.27 56.74 10.64 52.28 7.18C47.82 3.72 41.87 1.99 34.43 1.99C26.63 1.99 20.4 3.85 15.74 7.57C11.08 11.29 8.75 16.19 8.75 22.27C8.75 25.99 9.43 29.42 10.79 32.56C12.15 35.71 14.33 39 17.33 42.44C11.45 45.8 7.3 49.41 4.88 53.27C2.46 57.13 1.25 61.8 1.25 67.28C1.25 74.92 4.11 80.98 9.83 85.46C15.55 89.94 23.29 92.18 33.05 92.18C42.69 92.18 51.33 89.52 58.97 84.2L65.87 90.98L88.5 90.98L70.43 73.4ZM22.52 58.88C23.86 56.96 25.69 55.12 28.01 53.36L47.93 73.16C43.89 75.6 39.35 76.82 34.31 76.82C30.27 76.82 26.96 75.8 24.38 73.76C21.8 71.72 20.51 68.98 20.51 65.54C20.51 63.02 21.18 60.8 22.52 58.88ZM39.29 29.5C37.45 31.36 34.81 33.25 31.37 35.17C27.57 30.93 25.67 27.05 25.67 23.53C25.67 21.17 26.44 19.35 27.98 18.07C29.52 16.79 31.63 16.15 34.31 16.15C36.59 16.15 38.45 16.76 39.89 17.98C41.33 19.2 42.05 20.87 42.05 22.99C42.05 25.47 41.13 27.64 39.29 29.5Z" />
</svg>