<svg version="1.2" baseProfile="tiny-ps" xmlns="http://www.w3.org/2000/svg" viewBox="0 0 28 37" width="28" height="37">
	<title>icon</title>
	<style>
		tspan { white-space:pre }
		.shp0 { fill: #1faae2 } 
	</style>
	<path id="icon" class="shp0" d="M14.46 34.99C12.39 35.01 1.98 19.08 1.98 13.75C1.98 6.71 7.57 1 14.46 1C21.35 1 26.94 6.71 26.94 13.75C26.94 19.01 16.5 35.01 14.46 34.99ZM14.46 3.13C8.72 3.13 4.06 7.88 4.06 13.75C4.06 18.19 12.73 31.82 14.46 31.81C16.16 31.82 24.86 18.13 24.86 13.75C24.86 7.88 20.2 3.13 14.46 3.13ZM14.46 19.06C11.59 19.06 9.26 16.68 9.26 13.75C9.26 10.81 11.59 8.44 14.46 8.44C17.33 8.44 19.66 10.81 19.66 13.75C19.66 16.68 17.33 19.06 14.46 19.06ZM14.46 10.56C12.74 10.56 11.34 11.99 11.34 13.75C11.34 15.51 12.74 16.94 14.46 16.94C16.18 16.94 17.58 15.51 17.58 13.75C17.58 11.99 16.18 10.56 14.46 10.56Z" />
</svg>