<svg version="1.2" baseProfile="tiny-ps" xmlns="http://www.w3.org/2000/svg" viewBox="0 0 33 27" width="33" height="27">
	<title>icon</title>
	<style>
		tspan { white-space:pre }
		.shp0 { fill: #6d6e71 } 
	</style>
	<path id="icon" class="shp0" d="M27.33 25.27L5.31 25.27C3.28 25.27 1.64 23.64 1.64 21.63L1.64 5.26C1.64 3.25 3.28 1.62 5.31 1.62L27.33 1.62C29.36 1.62 31 3.25 31 5.26L31 21.63C31 23.64 29.36 25.27 27.33 25.27ZM6.23 3.44L16.32 12.14L26.41 3.44L6.23 3.44ZM29.17 5.26C29.17 4.74 28.94 4.27 28.58 3.94L16.32 14.36L4.06 3.94C3.7 4.27 3.48 4.74 3.48 5.26L3.48 21.63C3.48 22.64 4.3 23.45 5.31 23.45L27.33 23.45C28.34 23.45 29.17 22.64 29.17 21.63L29.17 5.26Z" />
</svg>