<svg version="1.2" baseProfile="tiny-ps" xmlns="http://www.w3.org/2000/svg" viewBox="0 0 32 32" width="32" height="32">
	<title>icon</title>
	<style>
		tspan { white-space:pre }
		.shp0 { fill: #6d6e71 } 
	</style>
	<path id="icon" class="shp0" d="M5.41 2.61L2.83 5.21C1.41 6.64 2.09 8.36 2.83 10.41C2.83 10.41 6.38 16.5 10.97 21.12C15.85 26.03 21.55 29.26 21.55 29.26C23.43 30.23 25.28 30.69 26.71 29.26L29.29 26.66C30 25.94 30.16 24.66 29.29 24.06L24.13 20.16C23.25 19.56 22.26 19.44 21.55 20.16L21.55 20.16L21.55 20.16L20.02 21.69C18.23 20.35 16.24 18.71 14.45 16.91C12.86 15.31 11.46 13.58 10.29 12L11.87 10.41C12.58 9.69 12.46 8.69 11.87 7.81L7.99 2.61C7.28 1.89 6.13 1.89 5.41 2.61M7.92 11.79L9.99 9.7C10.44 9.24 10.37 8.6 9.99 8.04L7.52 4.73C7.07 4.12 6.34 4.28 5.88 4.73L4.24 6.39C3.59 7 3.78 8.42 4.12 9.11C5.65 12.03 9.03 16.54 11.87 19.51C15.13 23.08 22.84 27.96 22.84 27.96C23.43 28.27 25.08 28.29 25.54 27.84L27.18 26.18C27.52 25.61 27.67 24.95 27.18 24.53L23.89 22.05C23.34 21.67 22.7 21.59 22.25 22.05L20.23 24.09C19.75 23.75 12.15 18.71 7.92 11.79Z" />
</svg>