<svg version="1.2" baseProfile="tiny-ps" xmlns="http://www.w3.org/2000/svg" viewBox="0 0 23 25" width="23" height="25">
	<title>link</title>
	<style>
		tspan { white-space:pre }
		.shp0 { fill: #c6c8ce } 
	</style>
	<path id="link" class="shp0" d="M21.67 8.74L18.47 11.95C17.28 13.14 15.59 13.53 14.08 13.11L16.75 10.44C16.79 10.41 16.83 10.38 16.87 10.34L20.07 7.14C20.96 6.25 20.96 4.82 20.07 3.93C19.19 3.05 17.76 3.05 16.87 3.93L13.67 7.14C13.67 7.14 13.67 7.14 13.67 7.14L13.67 7.14L10.9 9.9C10.5 8.39 10.89 6.72 12.07 5.53L15.27 2.33C17.04 0.56 19.91 0.56 21.67 2.33C23.44 4.1 23.44 6.97 21.67 8.74ZM8.51 17.16L8.5 17.16C8.29 17.37 8 17.5 7.68 17.5C7.05 17.5 6.53 16.98 6.53 16.35C6.53 16.02 6.68 15.72 6.9 15.51L14.51 7.91C14.72 7.68 15.02 7.54 15.35 7.54C15.99 7.54 16.5 8.05 16.5 8.69C16.5 9 16.38 9.29 16.17 9.49L16.18 9.5L8.51 17.16ZM6.13 14.66L2.93 17.86C2.05 18.75 2.05 20.19 2.93 21.07C3.81 21.96 5.25 21.96 6.13 21.07L9.33 17.86C9.36 17.84 9.37 17.82 9.39 17.79L12.1 15.09C12.51 16.6 12.12 18.28 10.94 19.47L7.73 22.68C5.96 24.45 3.1 24.45 1.33 22.68C-0.44 20.9 -0.44 18.03 1.33 16.26L4.53 13.05C5.72 11.87 7.4 11.48 8.91 11.89L6.16 14.64C6.15 14.65 6.14 14.65 6.13 14.66Z" />
</svg>