<svg version="1.2" baseProfile="tiny-ps" xmlns="http://www.w3.org/2000/svg" viewBox="0 0 26 26" width="26" height="26">
	<title>icon</title>
	<style>
		tspan { white-space:pre }
		.shp0 { fill: #6d6d71 } 
	</style>
	<path id="icon" fill-rule="evenodd" class="shp0" d="M24.47 22.11L24.47 22.11C24.8 22.42 25 22.85 25 23.33C25 24.25 24.25 25 23.33 25C22.85 25 22.42 24.8 22.11 24.47L22.11 24.47L18.75 21.11C19.51 20.15 19.97 18.95 20 17.64L24.47 22.11ZM10.83 0C16.82 0 21.67 4.85 21.67 10.83C21.67 16.82 16.82 21.67 10.83 21.67C4.85 21.67 0 16.82 0 10.83C0 4.85 4.85 0 10.83 0ZM3.33 10.83C3.33 14.98 6.69 18.33 10.83 18.33C14.98 18.33 18.33 14.98 18.33 10.83C18.33 6.69 14.98 3.33 10.83 3.33C6.69 3.33 3.33 6.69 3.33 10.83Z" />
</svg>