<svg version="1.2" baseProfile="tiny-ps" xmlns="http://www.w3.org/2000/svg" viewBox="0 0 22 26" width="22" height="26">
	<title>Forma 1</title>
	<style>
		tspan { white-space:pre }
		.shp0 { fill: #ffffff } 
	</style>
	<path id="Forma 1" class="shp0" d="M8.06 6.41C9.19 6.41 10.1 7.32 10.1 8.44C10.1 9.57 9.19 10.48 8.06 10.48C6.94 10.48 6.02 9.57 6.02 8.44C6.02 7.32 6.94 6.41 8.06 6.41ZM12.5 14.72C13.22 14.72 13.81 15.31 13.81 16.03C13.81 16.75 13.22 17.33 12.5 17.33C11.78 17.33 11.19 16.75 11.19 16.03C11.19 15.31 11.78 14.72 12.5 14.72ZM19.68 11.73C21.32 3.7 14.78 0.02 7.52 1.18C0.26 2.34 0.53 6.72 0.1 8.81C-0.75 14.05 4.66 19.91 4.66 19.91L4.35 26L13.16 26L13.83 23.2C13.83 23.2 14.22 23.84 16.49 24.03C18.77 24.22 18.49 21.45 18.49 21.45C18.49 21.45 20.01 20.78 20.01 20.28C20.01 19.78 19.11 19.14 19.11 19.14C19.11 19.14 20.07 19.31 20.42 18.91C20.77 18.5 20 17.04 20 17.04C20 17.04 21.18 17.01 21.88 16.24C22.58 15.47 19.68 13.2 19.68 11.73ZM7.1 12.83C7.1 12.83 7.05 12.29 7.03 12.02C6.81 11.96 6.6 11.88 6.4 11.79C6.15 12 5.68 12.4 5.68 12.4C5.68 12.4 5.59 12.45 5.55 12.47C5.51 12.49 4.75 12.4 4.75 12.4L3.44 10.85L3.44 9.93C3.44 9.93 3.94 9.51 4.19 9.29C4.14 9.09 4.11 8.87 4.09 8.66C3.76 8.51 3.1 8.21 3.1 8.21L2.84 7.44L2.87 7.31L3.71 5.47L4.61 5.23C4.61 5.23 5.18 5.49 5.46 5.62C5.64 5.48 5.82 5.36 6.02 5.24C5.99 4.9 5.94 4.22 5.94 4.22L6.59 3.56L8.62 3.4L9.27 4.05C9.27 4.05 9.31 4.57 9.33 4.83C9.6 4.91 9.85 5 10.09 5.11C10.31 4.93 10.75 4.55 10.75 4.55L11.67 4.55L12.99 6.09L12.99 7.01C12.99 7.01 12.46 7.47 12.19 7.7C12.23 7.89 12.25 8.08 12.26 8.27C12.6 8.47 13.27 8.86 13.27 8.86L13.51 9.75L12.49 11.5L11.6 11.74C11.6 11.74 11.07 11.44 10.81 11.29C10.66 11.4 10.5 11.5 10.34 11.6C10.37 11.95 10.43 12.65 10.43 12.65L9.78 13.3L7.76 13.48L7.1 12.83ZM15.34 17.99L14.77 18.14C14.77 18.14 14.43 17.95 14.26 17.85C14.17 17.93 14.06 17.99 13.96 18.05C13.98 18.28 14.02 18.72 14.02 18.72L13.6 19.14L12.3 19.26L11.88 18.84C11.88 18.84 11.85 18.49 11.84 18.32C11.7 18.28 11.56 18.23 11.43 18.17C11.28 18.31 10.97 18.57 10.97 18.57C10.97 18.57 10.92 18.59 10.89 18.61C10.87 18.62 10.38 18.57 10.38 18.57L9.53 17.57L9.53 16.98C9.53 16.98 9.86 16.71 10.02 16.57C9.98 16.44 9.96 16.3 9.95 16.16C9.74 16.07 9.32 15.87 9.32 15.87L9.15 15.38L9.17 15.3L9.71 14.12L10.29 13.97C10.29 13.97 10.65 14.13 10.83 14.22C10.94 14.13 11.07 14.05 11.19 13.97C11.17 13.75 11.14 13.31 11.14 13.31L11.56 12.89L12.86 12.79L13.28 13.21C13.28 13.21 13.3 13.54 13.32 13.71C13.49 13.76 13.65 13.82 13.8 13.89C13.94 13.77 14.22 13.53 14.22 13.53L14.82 13.53L15.66 14.52L15.66 15.11C15.66 15.11 15.32 15.4 15.15 15.55C15.17 15.67 15.19 15.79 15.19 15.92C15.41 16.04 15.84 16.29 15.84 16.29L15.99 16.87L15.34 17.99Z" />
</svg>