<svg version="1.2" baseProfile="tiny-ps" xmlns="http://www.w3.org/2000/svg" viewBox="0 0 24 22" width="24" height="22">
	<title>Forma 1</title>
	<style>
		tspan { white-space:pre }
		.shp0 { fill: #ffffff } 
	</style>
	<path id="Forma 1" class="shp0" d="M21.67 7.1L16.51 7.1C16.28 7.1 16.22 6.96 16.35 6.77C16.87 5.97 17.17 4.91 17.01 3.09C16.88 1.58 16.56 1 16.12 1C15.39 1 14.33 2.58 13.25 4.14C11.86 6.18 9.17 7.81 8.21 8.36C8.01 8.47 7.68 8.62 7.47 8.7L4.74 9.71C4.53 9.79 4.36 10.04 4.36 10.27L4.36 18.54C4.36 18.77 4.52 19.06 4.72 19.17L5.89 19.85C6.08 19.96 6.42 20.05 6.65 20.07C7.88 20.17 8.68 20.68 9.39 21.12C9.58 21.25 9.86 21.47 10.05 21.6C10.42 21.85 10.86 22 11.33 22L19.51 22C20.67 22 21.85 21.13 22.09 19.99C22.14 19.76 22.17 19.39 22.21 19.16L23.94 9.94C23.98 9.71 24.02 9.34 23.98 9.11C23.79 7.97 22.83 7.1 21.67 7.1ZM3.17 8.91L1.68 8.91C1.3 8.91 1 9.22 1 9.61L1 19.27C1 19.65 1.3 19.97 1.68 19.97L3.17 19.97C3.54 19.97 3.84 19.65 3.84 19.27L3.84 9.61C3.84 9.22 3.54 8.91 3.17 8.91Z" />
</svg>