<svg version="1.2" baseProfile="tiny-ps" xmlns="http://www.w3.org/2000/svg" viewBox="0 0 20 26" width="20" height="26">
	<title>Forma 1</title>
	<style>
		tspan { white-space:pre }
		.shp0 { fill: #ffffff } 
	</style>
	<path id="Forma 1" class="shp0" d="M16.83 10.37C16.83 13.5 13.67 16.58 13.67 19.75L7.33 19.75C7.33 16.67 4.17 13.5 4.17 10.37C4.17 6.92 7 4.12 10.5 4.12C14 4.12 16.83 6.92 16.83 10.37ZM12.87 22.87L8.12 22.87C7.69 22.87 7.33 23.22 7.33 23.66C7.33 24.09 7.69 24.44 8.12 24.44L8.27 24.44C8.6 25.35 9.47 26 10.5 26C11.53 26 12.4 25.35 12.73 24.44L12.87 24.44C13.31 24.44 13.67 24.09 13.67 23.66C13.67 23.22 13.31 22.87 12.87 22.87ZM12.87 20.53L8.12 20.53C7.69 20.53 7.33 20.88 7.33 21.31C7.33 21.74 7.69 22.09 8.12 22.09L12.87 22.09C13.31 22.09 13.67 21.74 13.67 21.31C13.67 20.88 13.31 20.53 12.87 20.53ZM1.88 6.36L3.3 7.17C3.52 6.69 3.78 6.25 4.09 5.82L2.67 5.01L1.88 6.36ZM11.29 2.64L11.29 1L9.71 1L9.71 2.64C9.97 2.61 10.23 2.56 10.5 2.56C10.77 2.56 11.03 2.61 11.29 2.64ZM7.26 3.27L6.44 1.86L5.06 2.65L5.89 4.05C6.32 3.75 6.77 3.48 7.26 3.27ZM19.12 6.36L18.33 5.01L16.91 5.82C17.22 6.25 17.48 6.69 17.7 7.17L19.12 6.36ZM15.93 2.65L14.56 1.86L13.75 3.27C14.23 3.48 14.69 3.75 15.11 4.05L15.93 2.65ZM2.58 10.37C2.58 10.11 2.64 9.85 2.66 9.59L1 9.59L1 11.16L2.67 11.16C2.64 10.9 2.58 10.64 2.58 10.37ZM18.34 9.59C18.36 9.85 18.42 10.11 18.42 10.37C18.42 10.64 18.36 10.9 18.33 11.16L20 11.16L20 9.59L18.34 9.59ZM17.04 15L18.33 15.74L19.12 14.38L17.69 13.57C17.49 14.05 17.27 14.53 17.04 15ZM1.88 14.38L2.67 15.74L3.95 15.01C3.72 14.53 3.5 14.06 3.31 13.57L1.88 14.38Z" />
</svg>