<svg version="1.2" baseProfile="tiny-ps" xmlns="http://www.w3.org/2000/svg" viewBox="0 0 17 20" width="17" height="20">
	<title>Forma 1</title>
	<style>
		tspan { white-space:pre }
		.shp0 { fill: #fc635e } 
	</style>
	<path id="Forma 1" class="shp0" d="M12.63 11.12C13.78 9.76 14.54 8.45 15.04 7.25C15.21 6.84 15.44 6.19 15.54 5.8C15.59 5.6 15.65 5.36 15.7 5.09C15.72 5.03 15.72 4.98 15.74 4.92C15.75 4.84 15.76 4.77 15.77 4.69C15.9 3.89 15.92 3.19 15.9 2.64C15.88 2.2 15.84 1.83 15.87 1.8C15.88 1.78 15.89 1.77 15.91 1.75C16.01 1.62 16.06 1.48 16.01 1.45C16.01 1.45 16 1.44 15.98 1.42C15.97 1.41 15.98 1.3 16.01 1.17C16.04 1.04 15.95 0.97 15.81 1.01C15.66 1.06 15.53 1.08 15.51 1.07L15.48 1.04C15.43 1.01 15.31 1.09 15.21 1.22C15.2 1.23 15.19 1.25 15.18 1.26C15.16 1.28 14.79 1.32 14.35 1.41C13.59 1.56 12.38 1.91 11.06 2.73C8.93 4.03 7.57 5.86 6.95 6.84C6.71 7.21 6.19 7.48 5.74 7.47C2.15 7.35 0.61 9.83 0.05 11.13C-0.12 11.54 0.15 11.86 0.6 11.85C8.51 11.7 9.23 16.55 9.2 18.5C9.19 18.94 9.47 19.16 9.86 18.93C12.73 17.22 12.54 13.99 12.28 12.5C12.2 12.07 12.34 11.46 12.63 11.12ZM11.74 8.94C11.25 9.47 10.43 9.61 9.76 9.23C9 8.79 8.73 7.85 9.16 7.11C9.22 7.02 9.28 6.94 9.35 6.86C9.83 6.33 10.66 6.19 11.33 6.57C12.09 7 12.36 7.95 11.92 8.69C11.87 8.78 11.8 8.86 11.74 8.94ZM4.78 19.61C6.2 18.77 7.02 17.22 7.41 16.29C7.58 15.88 7.34 15.68 6.97 15.91C5.48 16.85 4.68 18.31 4.32 19.2C4.15 19.61 4.4 19.84 4.78 19.61ZM1.96 19.92C4.12 18.74 5.29 16.26 5.76 15.01C5.92 14.59 5.68 14.39 5.3 14.62C3.02 15.97 1.91 18.29 1.47 19.49C1.31 19.9 1.57 20.13 1.96 19.92ZM1.45 17.03C2.87 16.19 3.69 14.64 4.07 13.71C4.24 13.3 4.01 13.1 3.63 13.34C2.15 14.27 1.35 15.74 0.98 16.62C0.81 17.03 1.07 17.26 1.45 17.03Z" />
</svg>