<svg version="1.2" baseProfile="tiny-ps" xmlns="http://www.w3.org/2000/svg" viewBox="0 0 25 21" width="25" height="21">
	<title>Forma 1</title>
	<style>
		tspan { white-space:pre }
		.shp0 { fill: #ffffff } 
	</style>
	<path id="Forma 1" class="shp0" d="M22.61 0L2.39 0C1.62 0 0.99 0.64 0.99 1.42L0.99 16.17C0.99 16.95 1.62 17.6 2.39 17.6L22.61 17.6C23.38 17.6 24.01 16.95 24.01 16.17L24.01 1.42C24.01 0.64 23.38 0 22.61 0ZM22.26 15.13L2.74 15.13L2.74 2L22.26 2L22.26 15.13ZM17.78 21L7.26 21L9.91 18.27L15.13 18.27L17.78 21ZM11.42 6.1C11.94 6.1 12.36 6.52 12.36 7.05C12.36 7.58 11.94 8 11.42 8C10.9 8 10.48 7.58 10.48 7.05C10.48 6.52 10.9 6.1 11.42 6.1ZM15.2 9.17C15.72 9.17 16.14 9.6 16.14 10.12C16.14 10.65 15.72 11.07 15.2 11.07C14.68 11.07 14.26 10.65 14.26 10.12C14.26 9.6 14.68 9.17 15.2 9.17ZM18.94 5.85C19.46 5.85 19.88 6.28 19.88 6.81C19.88 7.33 19.46 7.76 18.94 7.76C18.42 7.76 18 7.33 18 6.81C18 6.28 18.42 5.85 18.94 5.85ZM5.72 10.59C6.24 10.59 6.66 11.02 6.66 11.55C6.66 12.07 6.24 12.5 5.72 12.5C5.21 12.5 4.79 12.07 4.79 11.55C4.79 11.02 5.21 10.59 5.72 10.59ZM15.15 9.84C14.76 9.51 11.46 6.66 11.46 6.66L5.43 11.41L5.75 11.99C5.75 11.99 11.03 7.64 11.38 7.45C11.69 7.71 15.16 10.71 15.16 10.71L19.16 7.05L18.72 6.56C18.72 6.56 15.52 9.5 15.15 9.84Z" />
</svg>