<svg version="1.2" baseProfile="tiny-ps" xmlns="http://www.w3.org/2000/svg" viewBox="0 0 35 35" width="35" height="35">
	<title>LinkedIn icon</title>
	<style>
		tspan { white-space:pre }
		.shp0 { fill: #bdd1df } 
		.shp1 { fill: #ffffff } 
	</style>
	<path id="Base" class="shp0" d="M18 2C26.84 2 34 9.16 34 18C34 26.84 26.84 34 18 34C9.16 34 2 26.84 2 18C2 9.16 9.16 2 18 2Z" />
	<path id="LinkedIn icon" class="shp1" d="M14.46 10.92C14.46 11.89 13.76 12.61 12.57 12.61C11.44 12.61 10.69 11.89 10.69 10.92C10.69 9.92 11.44 9.21 12.59 9.21C13.74 9.21 14.44 9.92 14.46 10.92ZM11 25.01L11 13.99L14.01 13.99L14.01 25.01L11 25.01ZM16.02 13.99L18.7 13.99L19.02 15.11C19.47 14.4 20.43 13.61 22.25 13.61C24.47 13.61 26.01 14.9 26.01 18.1L26.01 24.98L23.01 24.98L23.01 18.58C23.01 17.18 22.04 16.23 20.82 16.23C19.89 16.23 19.35 16.87 19.1 17.49C19.01 17.71 18.99 18.02 18.99 18.33L18.99 24.98L16.02 24.98L16.02 13.99Z" />
</svg>