<svg version="1.2" baseProfile="tiny-ps" xmlns="http://www.w3.org/2000/svg" viewBox="0 0 35 35" width="35" height="35">
	<title>Mail</title>
	<style>
		tspan { white-space:pre }
		.shp0 { fill: #bdd1df } 
		.shp1 { fill: #ffffff } 
	</style>
	<path id="Base" class="shp0" d="M18 2C26.84 2 34 9.16 34 18C34 26.84 26.84 34 18 34C9.16 34 2 26.84 2 18C2 9.16 9.16 2 18 2Z" />
	<path id="Mail" class="shp1" d="M10.61 14.18C11.1 14.45 16.85 18.19 17.1 18.33C17.35 18.47 17.68 18.53 18 18.53C18.33 18.53 18.66 18.47 18.91 18.33C19.16 18.19 24.91 14.45 25.4 14.18C25.89 13.91 26.35 13.06 25.45 13.06L10.56 13.06C9.66 13.06 10.12 13.91 10.61 14.18ZM25.6 16.24C25.05 16.54 19.25 20.21 18.91 20.39C18.57 20.57 18.33 20.59 18 20.59C17.68 20.59 17.44 20.57 17.1 20.39C16.76 20.21 10.96 16.54 10.4 16.24C10.01 16.03 10.02 16.27 10.02 16.46C10.02 16.65 10.02 24.02 10.02 24.02C10.02 24.45 10.57 25.01 11.01 25.01L25 25.01C25.43 25.01 25.99 24.45 25.99 24.02C25.99 24.02 25.99 16.65 25.99 16.46C25.99 16.27 25.99 16.03 25.6 16.24Z" />
</svg>