<svg version="1.2" baseProfile="tiny-ps" xmlns="http://www.w3.org/2000/svg" viewBox="0 0 35 35" width="35" height="35">
	<title>Twitter</title>
	<style>
		tspan { white-space:pre }
		.shp0 { fill: #bdd1df } 
		.shp1 { fill: #ffffff } 
	</style>
	<path id="Base" class="shp0" d="M18 2C26.84 2 34 9.16 34 18C34 26.84 26.84 34 18 34C9.16 34 2 26.84 2 18C2 9.16 9.16 2 18 2Z" />
	<path id="Twitter" class="shp1" d="M26.98 13.66C26.36 13.94 25.69 14.13 24.98 14.21C25.7 13.77 26.26 13.08 26.52 12.26C25.84 12.66 25.1 12.96 24.3 13.11C23.67 12.43 22.76 12 21.76 12C19.84 12 18.28 13.58 18.28 15.53C18.28 15.81 18.31 16.08 18.37 16.34C15.48 16.19 12.91 14.78 11.2 12.64C10.9 13.17 10.73 13.77 10.73 14.42C10.73 15.65 11.34 16.73 12.27 17.36C11.7 17.35 11.17 17.19 10.7 16.92C10.7 16.94 10.7 16.95 10.7 16.97C10.7 18.68 11.9 20.11 13.49 20.43C13.2 20.51 12.89 20.56 12.57 20.56C12.35 20.56 12.13 20.54 11.92 20.49C12.36 21.9 13.65 22.92 15.17 22.95C13.98 23.9 12.48 24.46 10.85 24.46C10.56 24.46 10.29 24.45 10.02 24.41C11.56 25.42 13.39 26 15.35 26C21.76 26 25.26 20.61 25.26 15.94C25.26 15.79 25.25 15.64 25.25 15.49C25.93 14.99 26.52 14.36 26.98 13.66Z" />
</svg>